<?xml version="1.0" encoding="UTF-8" standalone="no"?>
<!DOCTYPE svg PUBLIC "-//W3C//DTD SVG 1.1//EN"
 "http://www.w3.org/Graphics/SVG/1.1/DTD/svg11.dtd">
<!-- Generated by graphviz version 2.43.0 (0)
 -->
<!-- Title: workflow Pages: 1 -->
<svg width="202pt" height="328pt"
 viewBox="0.00 0.00 202.00 328.00" xmlns="http://www.w3.org/2000/svg" xmlns:xlink="http://www.w3.org/1999/xlink">
<g id="graph0" class="graph" transform="scale(1 1) rotate(0) translate(4 324)">
<title>workflow</title>
<polygon fill="white" stroke="transparent" points="-4,4 -4,-324 198,-324 198,4 -4,4"/>
<text text-anchor="start" x="51.5" y="-8.8" font-family="Times,serif" font-weight="bold" font-size="14.00">AmstWorkflow</text>
<!-- place_new -->
<g id="node1" class="node">
<title>place_new</title>
<ellipse fill="lightgreen" stroke="lightBlue" cx="122" cy="-275" rx="72" ry="36"/>
<text text-anchor="start" x="114" y="-274.1" font-family="Arial" font-weight="bold" font-size="8.00">new</text>
<text text-anchor="middle" x="29" y="-313.6" font-family="Arial" font-size="8.00">Place new: </text>
</g>
<!-- transition_do -->
<g id="node3" class="node">
<title>transition_do</title>
<polygon fill="lightBlue" stroke="lightBlue" points="194,-203 50,-203 50,-131 194,-131 194,-203"/>
<text text-anchor="start" x="116.5" y="-166.1" font-family="Arial" font-weight="bold" font-size="8.00">do</text>
<text text-anchor="middle" x="25" y="-205.6" font-family="Arial" font-size="8.00">Transition do: </text>
</g>
<!-- place_new&#45;&gt;transition_do -->
<!-- new -->
<g id="edge1" class="edge">
<title>place_new&#45;&gt;transition_do</title>
<path fill="none" stroke="#333333" d="M122,-239C122,-229.24 122,-218.56 122,-208.51"/>
<polygon fill="#333333" stroke="#333333" points="123.75,-208.33 122,-203.33 120.25,-208.33 123.75,-208.33"/>
</g>
<!-- place_done -->
<g id="node2" class="node">
<title>place_done</title>
<ellipse fill="lightgreen" stroke="lightBlue" cx="122" cy="-59" rx="72" ry="36"/>
<text text-anchor="start" x="111.5" y="-58.1" font-family="Arial" font-weight="bold" font-size="8.00">done</text>
<text text-anchor="middle" x="27.5" y="-97.6" font-family="Arial" font-size="8.00">Place done: </text>
</g>
<!-- transition_do&#45;&gt;place_done -->
<g id="edge2" class="edge">
<title>transition_do&#45;&gt;place_done</title>
<path fill="none" stroke="#333333" d="M122,-131C122,-121.24 122,-110.56 122,-100.51"/>
<polygon fill="#333333" stroke="#333333" points="123.75,-100.33 122,-95.33 120.25,-100.33 123.75,-100.33"/>
</g>
</g>
</svg>
